# xmcd
#
# Track frame offsets:
#	150
#	11865
#	25085
#	39980
#	52362
#	70840
#	87400
#	108182
#	122785
#	139020
#	155847
#	169497
#
# Disc length: 2454 seconds
#
# Revision: 2
# Processed by: cddbd v1.5.1PL0 Copyright (c) Steve Scherf et al.
# Submitted via: EasyCDDAExtractor 6.5.7.1
#
DISCID=a909940c
DTITLE=Various Artist - Milongas Gaúchas V2
DYEAR=1900
DGENRE=Gaúchas
TTITLE0=Paulo Siqueira - Altaneira
TTITLE1=Grupo Charla - Gaúcho Hospitaleiro
TTITLE2=Nenito Sarturi - Um Apito
TTITLE3=Adelmo Reieffel - Sentimento de gaiteiro
TTITLE4=Marcelo Noms - Engano
TTITLE5=Paulo Siqueira - Velho Chapéu
TTITLE6=Paulo Costa - Milonga de Capataz
TTITLE7=Os Araganos - Guria
TTITLE8=Piazitos do Fandango - Pensando em Ti
TTITLE9=Adair de Freitas - Milnga da Solidão
TTITLE10=Grupo Tarumã - Amor de China
TTITLE11=Grupo Querência - Minha Mania
EXTD=
EXTT0=
EXTT1=
EXTT2=
EXTT3=
EXTT4=
EXTT5=
EXTT6=
EXTT7=
EXTT8=
EXTT9=
EXTT10=
EXTT11=
PLAYORDER=
